<?xml version="1.0" encoding="UTF-8" standalone="no"?>
<svg
   xmlns:dc="http://purl.org/dc/elements/1.1/"
   xmlns:cc="http://creativecommons.org/ns#"
   xmlns:rdf="http://www.w3.org/1999/02/22-rdf-syntax-ns#"
   xmlns:svg="http://www.w3.org/2000/svg"
   xmlns="http://www.w3.org/2000/svg"
   xmlns:xlink="http://www.w3.org/1999/xlink"
   xmlns:sodipodi="http://sodipodi.sourceforge.net/DTD/sodipodi-0.dtd"
   xmlns:inkscape="http://www.inkscape.org/namespaces/inkscape"
   id="Layer_1"
   viewBox="0 0 293.2 344.3"
   version="1.1"
   sodipodi:docname="Android_Robot.svg"
   inkscape:version="0.92.1 r15371">
  <metadata
     id="metadata11">
    <rdf:RDF>
      <cc:Work
         rdf:about="">
        <dc:format>image/svg+xml</dc:format>
        <dc:type
           rdf:resource="http://purl.org/dc/dcmitype/StillImage" />
      </cc:Work>
    </rdf:RDF>
  </metadata>
  <defs
     id="defs9">
    <linearGradient
       inkscape:collect="always"
       id="linearGradient4492">
      <stop
         style="stop-color:#79c257;stop-opacity:1;"
         offset="0"
         id="stop4488" />
      <stop
         style="stop-color:#79c257;stop-opacity:0;"
         offset="1"
         id="stop4490" />
    </linearGradient>
    <radialGradient
       inkscape:collect="always"
       xlink:href="#linearGradient4492"
       id="radialGradient4496"
       cx="147"
       cy="172.45"
       fx="147"
       fy="172.45"
       r="139.39999"
       gradientTransform="matrix(1,0,0,1.1832855,0,-31.607586)"
       gradientUnits="userSpaceOnUse" />
  </defs>
  <sodipodi:namedview
     pagecolor="#ffffff"
     bordercolor="#666666"
     borderopacity="1"
     objecttolerance="10"
     gridtolerance="10"
     guidetolerance="10"
     inkscape:pageopacity="0"
     inkscape:pageshadow="2"
     inkscape:window-width="732"
     inkscape:window-height="480"
     id="namedview7"
     showgrid="false"
     inkscape:zoom="0.68544876"
     inkscape:cx="158.27119"
     inkscape:cy="172.14999"
     inkscape:window-x="2421"
     inkscape:window-y="418"
     inkscape:window-maximized="0"
     inkscape:current-layer="Layer_1" />
  <style
     id="style2">.st0{fill:#79c257}</style>
  <path
     class="st0"
     d="M286.4 135c0-11.2-9.2-20.4-20.4-20.4s-20.4 9.2-20.4 20.4v85c0 11.2 9.2 20.4 20.4 20.4s20.4-9.2 20.4-20.4v-85zM48.4 135c0-11.2-9.2-20.4-20.4-20.4S7.6 123.8 7.6 135v85c0 11.2 9.2 20.4 20.4 20.4s20.4-9.2 20.4-20.4v-85zM191.6 37.8l14.4-26c.8-1.4.3-3.2-1.1-3.9-.4-.2-.9-.4-1.4-.4-1 0-2 .5-2.5 1.5l-14.6 26.3C174.5 30 161.1 27 147 27c-14.1 0-27.5 3-39.4 8.3L93.1 9c-.8-1.4-2.5-1.9-3.9-1.1-1.4.8-1.9 2.5-1.1 3.9l14.4 26C74.7 52.2 56 79.5 56 110.9h182c0-31.4-18.7-58.7-46.4-73.1zM105 77.6c-4.2 0-7.6-3.4-7.6-7.6s3.4-7.6 7.6-7.6 7.6 3.4 7.6 7.6-3.4 7.6-7.6 7.6zm84 0c-4.2 0-7.6-3.4-7.6-7.6s3.4-7.6 7.6-7.6 7.6 3.4 7.6 7.6-3.4 7.6-7.6 7.6zM56 118.1V250c0 12.2 9.8 22 22 22h14.6v45c0 11.2 9.2 20.4 20.4 20.4s20.4-9.2 20.4-20.4v-45h27.2v45c0 11.2 9.2 20.4 20.4 20.4s20.4-9.2 20.4-20.4v-45H216c12.2 0 22-9.8 22-22V118.1H56z"
     id="path4"
     style="fill-opacity:1;fill:url(#radialGradient4496);opacity:0.35" />
</svg>
